<svg id="_1" data-name=" 1" xmlns="http://www.w3.org/2000/svg" viewBox="0 0 263.27 231.87"><defs><style>.cls-1{fill:#45484a;}</style></defs><title>AdobeStock_95377542</title><path class="cls-1" d="M72.54,101.53a58.22,58.22,0,0,0,92.74,47l28.63,26.27a14.37,14.37,0,0,0,19.44-21.18l-29.76-27.32a58.28,58.28,0,1,0-111-24.73Zm100.64,0a42.34,42.34,0,1,1-42.34-42.34A42.33,42.33,0,0,1,173.18,101.53Z"/><path class="cls-1" d="M118.33,116.14a4.27,4.27,0,0,1-4.27,4.27h-2.84a4.27,4.27,0,0,1-4.27-4.27V101a4.27,4.27,0,0,1,4.27-4.27h2.84a4.27,4.27,0,0,1,4.27,4.27Z"/><path class="cls-1" d="M136.22,116.14a4.27,4.27,0,0,1-4.26,4.27h-2.85a4.27,4.27,0,0,1-4.26-4.27V91.79a4.27,4.27,0,0,1,4.26-4.26H132a4.26,4.26,0,0,1,4.26,4.26Z"/><path class="cls-1" d="M154.11,116.14a4.26,4.26,0,0,1-4.26,4.27H147a4.27,4.27,0,0,1-4.26-4.27V82.6A4.26,4.26,0,0,1,147,78.33h2.84a4.26,4.26,0,0,1,4.26,4.26Z"/></svg>