<svg id="_1" data-name=" 1" xmlns="http://www.w3.org/2000/svg" viewBox="0 0 263.27 231.87"><defs><style>.cls-1{fill:#45484a;}</style></defs><title>AdobeStock_95377542</title><path class="cls-1" d="M157.16,104.84a17.55,17.55,0,0,0-2.46.19,21.69,21.69,0,0,0-38.18-3.93A13.53,13.53,0,0,0,101,113.32a13.62,13.62,0,0,0,2.19,27.06l54,.06a17.8,17.8,0,0,0,0-35.59Z"/><polygon class="cls-1" points="73.52 99.36 82.08 115.94 56.56 107.79 73.52 99.36"/><polygon class="cls-1" points="141.09 176.12 151.17 160.42 156.88 186.59 141.09 176.12"/><polygon class="cls-1" points="173.79 79.22 155.15 78.34 174.96 60.31 173.79 79.22"/><path class="cls-1" d="M179.08,91.14a56.15,56.15,0,0,1-26.92,79.61l2,9.28a65.5,65.5,0,0,0,32-95.31Z"/><path class="cls-1" d="M81.09,91.56a56.25,56.25,0,0,1,83.27-17.29l7-6.38A65.56,65.56,0,0,0,72,88.67Z"/><path class="cls-1" d="M130.22,175.24a56.26,56.26,0,0,1-55.93-62.36l-9-2.89a65.57,65.57,0,0,0,67,74.56Z"/></svg>