<svg id="_1" data-name=" 1" xmlns="http://www.w3.org/2000/svg" viewBox="0 0 263.27 231.87"><defs><style>.cls-1{fill:#45484a;}</style></defs><title>AdobeStock_95377542</title><path class="cls-1" d="M155.28,135.35c-.55-1.16-1.11-2.35-1.66-3.55a56.63,56.63,0,0,1-4.42-12.11H113.85a56.63,56.63,0,0,1-4.42,12.11c-.55,1.2-1.12,2.39-1.66,3.55l-1.05,2.23-.23.51h50.09l-.23-.51Zm-19.73-3.61a1,1,0,0,1-1,1h-5.73a1,1,0,0,1-1-1v-5a1,1,0,0,1,1-1h5.73a1,1,0,0,1,1,1Z"/><path class="cls-1" d="M82.17,91.15q-.06,1.32-.12,2.66V130a8,8,0,0,0,1.86,5.09A13.81,13.81,0,0,0,86.13,134l.58-1.46.22-.55.22-.55.92-2.31,2.14-5.36a24.06,24.06,0,0,1,1.08-2.28c.24-.46.6-1.09,1-1.81a1,1,0,0,1-1-1V60.23a1,1,0,0,1,1-1H171a1,1,0,0,1,1,1v58.45a1,1,0,0,1-1,1h-.24c.43.71.78,1.34,1,1.8a24,24,0,0,1,1.08,2.28l2.14,5.36.92,2.31.22.55.22.55.58,1.46a13.31,13.31,0,0,0,2.45,1.17A8,8,0,0,0,181.3,130V101.77c-.11-3.54.26-7.12.09-10.61l-.09-9.95V58.78a8.12,8.12,0,0,0-8.1-8.1H90.15a8.12,8.12,0,0,0-8.1,8.1v22Z"/><path class="cls-1" d="M156.68,112.23a5.75,5.75,0,0,0-2.27.47c-2.28,1-2.53,3.6-1.75,7h14C164.2,116.07,160.54,112.23,156.68,112.23Z"/><path class="cls-1" d="M160.31,138.1c.72,1.6,1.33,3.06,1.75,4.29,2.78,8.33,9,16.67,9,16.67l3.47,14.77,22.92-.7c-2.78-4,1.39-13.37,1.39-13.37s8.14-25.9,7.9-29.37-1.54-5.09-4.8-12.42-17.69-27-17.69-27,2,43.13-.75,46.61a3.41,3.41,0,0,1-2.8,1.25,10.36,10.36,0,0,1-4.49-1.36,8,8,0,0,1-3,.6Z"/><path class="cls-1" d="M156.7,130.38c.91,2,1.85,3.94,2.71,5.77.31.67.61,1.31.89,1.95h12.9a8,8,0,0,0,3-.6,18.39,18.39,0,0,1-2.07-1.26l0-.08L173,133.24l-1.14-2.86L169.69,125a20.83,20.83,0,0,0-.93-1.94,35.4,35.4,0,0,0-2.07-3.39h-14A59.61,59.61,0,0,0,156.7,130.38Z"/><polygon class="cls-1" points="174.66 177.22 171.88 177.31 171.68 176.43 169.33 176.43 169.33 190.62 200.52 190.62 200.52 176.43 200.48 176.43 197.58 176.52 174.66 177.22"/><polygon class="cls-1" points="171.88 177.31 174.66 177.22 197.58 176.52 200.48 176.43 171.68 176.43 171.88 177.31"/><path class="cls-1" d="M108.64,112.7a5.75,5.75,0,0,0-2.27-.47c-3.85,0-7.52,3.84-10,7.46h14C111.17,116.3,110.92,113.67,108.64,112.7Z"/><path class="cls-1" d="M86.95,137.43a10.51,10.51,0,0,1-4.61,1.43,3.41,3.41,0,0,1-2.8-1.25C76.75,134.13,78.78,91,78.78,91s-14.43,19.63-17.69,27-4.56,9-4.8,12.42,7.9,29.37,7.9,29.37,4.17,9.38,1.39,13.37l22.92.7L92,159.06s6.25-8.33,9-16.67c.41-1.23,1-2.7,1.75-4.29H90.15A8,8,0,0,1,86.95,137.43Z"/><path class="cls-1" d="M93.36,125l-2.14,5.35-1.14,2.86-1.16,2.91,0,.08a18.87,18.87,0,0,1-1.95,1.2,8,8,0,0,0,3.2.67h12.6c.28-.63.58-1.28.89-1.95.86-1.84,1.8-3.79,2.71-5.77a59.61,59.61,0,0,0,4-10.69h-14a35.4,35.4,0,0,0-2.07,3.39A20.78,20.78,0,0,0,93.36,125Z"/><polygon class="cls-1" points="88.39 177.22 65.47 176.52 62.57 176.43 62.53 176.43 62.53 190.62 93.72 190.62 93.72 176.43 91.38 176.43 91.17 177.31 88.39 177.22"/><polygon class="cls-1" points="65.47 176.52 88.39 177.22 91.17 177.31 91.38 176.43 62.57 176.43 65.47 176.52"/></svg>