<svg id="_1" data-name=" 1" xmlns="http://www.w3.org/2000/svg" viewBox="0 0 263.27 231.87"><defs><style>.cls-1{fill:#45484a;}</style></defs><title>AdobeStock_95377542</title><path class="cls-1" d="M192.3,58.71v1.78a17,17,0,0,1-34.08,0V58.71H122.38v1.78a17,17,0,0,1-34.08,0V58.71H68.37V199.24H212.23V58.71Zm4.85,124H83.45V92.55h113.7Z"/><path class="cls-1" d="M105.34,36.68a12,12,0,0,0-12,12V60.49a12,12,0,0,0,24.05,0V48.71A12,12,0,0,0,105.34,36.68Z"/><path class="cls-1" d="M175.26,36.68a12,12,0,0,0-12,12V60.49a12,12,0,0,0,24.05,0V48.71A12,12,0,0,0,175.26,36.68Z"/><path class="cls-1" d="M144,151.86l7.19,1a25.9,25.9,0,0,0,0-10.42l-7.19,1-1.19-2.89-1.19-2.89,5.8-4.37a25.9,25.9,0,0,0-7.35-7.38l-4.38,5.79-2.89-1.2-2.89-1.2,1-7.19a25.9,25.9,0,0,0-10.42,0l1,7.19-2.89,1.19-2.89,1.19-4.37-5.8a25.9,25.9,0,0,0-7.38,7.35l5.79,4.38-1.2,2.89-1.2,2.89-7.19-1a25.89,25.89,0,0,0,0,10.42l7.19-1,1.19,2.89,1.19,2.89-5.8,4.37a25.9,25.9,0,0,0,7.35,7.38l4.38-5.79,2.89,1.2,2.89,1.2-1,7.19a25.9,25.9,0,0,0,10.42,0l-1-7.19,2.89-1.19,2.89-1.19,4.37,5.8a25.89,25.89,0,0,0,7.38-7.35l-5.79-4.38,1.2-2.89Zm-18.32,6.33a10.56,10.56,0,1,1,10.56-10.56A10.56,10.56,0,0,1,125.63,158.19Z"/><path class="cls-1" d="M177.48,135l4.53-.23a16.18,16.18,0,0,0-1.23-6.39l-4.29,1.47-1.08-1.63-1.08-1.63,3-3.37a16.19,16.19,0,0,0-5.39-3.65l-2,4.07-1.92-.39-1.92-.39-.23-4.53a16.19,16.19,0,0,0-6.39,1.23l1.47,4.29-1.63,1.08L157.73,126l-3.37-3a16.18,16.18,0,0,0-3.65,5.39l4.07,2-.39,1.92-.39,1.92-4.53.23a16.19,16.19,0,0,0,1.23,6.39l4.29-1.47,1.08,1.63,1.08,1.63-3,3.37a16.18,16.18,0,0,0,5.39,3.65l2-4.07,1.92.39,1.92.39.23,4.53a16.19,16.19,0,0,0,6.39-1.23l-1.47-4.29,1.63-1.08,1.63-1.08,3.37,3a16.19,16.19,0,0,0,3.65-5.39l-4.07-2,.39-1.92ZM167,141.07a6.6,6.6,0,1,1,5.22-7.74A6.6,6.6,0,0,1,167,141.07Z"/><path class="cls-1" d="M150.34,116.73l2.91,1.62a11.88,11.88,0,0,0,1.72-4.46l-3.24-.76,0-1.44,0-1.44,3.2-.91a11.88,11.88,0,0,0-1.93-4.37l-2.83,1.76-1-1-1-1,1.62-2.91a11.88,11.88,0,0,0-4.46-1.72l-.76,3.24-1.44,0-1.44,0-.91-3.2a11.88,11.88,0,0,0-4.37,1.93L138,105l-1,1-1,1-2.91-1.62a11.88,11.88,0,0,0-1.72,4.46l3.24.76,0,1.44,0,1.44-3.2.91a11.88,11.88,0,0,0,1.93,4.37l2.83-1.76,1,1,1,1L136.75,122a11.88,11.88,0,0,0,4.46,1.72l.76-3.24,1.44,0,1.44,0,.91,3.2a11.88,11.88,0,0,0,4.37-1.93l-1.76-2.83,1-1Zm-8.89-.31a4.85,4.85,0,1,1,6.26-2.78A4.85,4.85,0,0,1,141.46,116.42Z"/></svg>