<svg id="Layer_2" data-name="Layer 2" xmlns="http://www.w3.org/2000/svg" viewBox="0 0 300 400"><defs><style>.cls-1{fill:#eceded;}.cls-10,.cls-2{fill:#434a54;}.cls-3,.cls-4{fill:#da4d28;}.cls-15,.cls-4{font-size:21px;font-family:MuseoSansRounded-500, Museo Sans Rounded;}.cls-5{letter-spacing:0em;}.cls-6{letter-spacing:0em;}.cls-7{letter-spacing:0em;}.cls-8{letter-spacing:-0.01em;}.cls-9{font-size:18px;font-family:MuseoSansRounded-300, Museo Sans Rounded;}.cls-10{font-size:12px;font-family:Avenir-Roman, Avenir;letter-spacing:0.01em;}.cls-11{letter-spacing:0.02em;}.cls-12{letter-spacing:0.02em;}.cls-13{letter-spacing:0em;}.cls-14{letter-spacing:0.02em;}.cls-15{fill:#fff;letter-spacing:0em;}.cls-16{letter-spacing:0.01em;}.cls-17{letter-spacing:0.01em;}</style></defs><title>Cloud Computing Section</title><circle class="cls-1" cx="150" cy="86.8" r="50"/><path class="cls-2" d="M185.09,108.13H161a1,1,0,0,1-1,.88H140.46a1,1,0,0,1-1-.88H115.38a3.14,3.14,0,0,0,0,.35v1.06a3.17,3.17,0,0,0,3.17,3.17H182a3.17,3.17,0,0,0,3.17-3.17v-1.06A2.83,2.83,0,0,0,185.09,108.13Z"/><path class="cls-2" d="M147.89,69.53s0,.08,0,.12l3.4,3.4h0l3.52-3.52Z"/><path class="cls-2" d="M178.2,69.53H168.12l-2.27,3.52H176v29.88H124.45V73.06h5.33a9.76,9.76,0,0,1-1.3-3.52h-6.22A1.46,1.46,0,0,0,120.81,71v34.08a1.46,1.46,0,0,0,1.47,1.47H178.2a1.47,1.47,0,0,0,1.47-1.47V71A1.47,1.47,0,0,0,178.2,69.53Z"/><path class="cls-3" d="M167.2,87.16a6.94,6.94,0,0,0-7.47-1.54l-6.15-6.15,7.69-7.69,2.13-.29,3.75-5.81-2.06-2.06-5.81,3.75L159,69.5l-7.69,7.69-6.67-6.67a6.92,6.92,0,0,0-6-9.48L141.52,64l-1.26,4.71-4.71,1.26-4-4a6.94,6.94,0,0,0,9.2,8.47l5.87,5.87L134.08,92.81a2.58,2.58,0,0,0,0,3.65l.23.23a2.58,2.58,0,0,0,3.65,0L150.5,84.15l5.35,5.35a6.92,6.92,0,0,0,7.36,9.43l-3.73-3.73,1-3.87,3.87-1,4.35,4.35A6.94,6.94,0,0,0,167.2,87.16Z"/><text class="cls-4" transform="translate(41.48 164.68)">Dev<tspan class="cls-5" x="37.23" y="0">O</tspan><tspan x="54.26" y="0">ps &amp; </tspan><tspan class="cls-6" x="99.94" y="0">A</tspan><tspan x="112.89" y="0">u</tspan><tspan class="cls-7" x="125.22" y="0">t</tspan><tspan x="132.3" y="0">om</tspan><tspan class="cls-8" x="164.24" y="0">a</tspan><tspan x="174.97" y="0">tion</tspan><tspan class="cls-9" x="212.54" y="0"> </tspan></text><text class="cls-10" transform="translate(81.04 187.96)">Cloud Analy<tspan class="cls-11" x="67.79" y="0">t</tspan><tspan x="72.2" y="0">ics, Pipe</tspan><tspan class="cls-11" x="118.27" y="0">l</tspan><tspan x="121.34" y="0">ine </tspan><tspan x="-6.46" y="16.46">Automa</tspan><tspan class="cls-11" x="37.54" y="16.46">t</tspan><tspan class="cls-12" x="41.96" y="16.46">ion &amp; Monitoring - </tspan><tspan x="-7.9" y="32.91">Dashboa</tspan><tspan class="cls-13" x="40.95" y="32.91">r</tspan><tspan class="cls-11" x="45.14" y="32.91">d</tspan><tspan x="52.66" y="32.91">ing and Big Data </tspan><tspan x="-25.96" y="49.37">Business Inte</tspan><tspan class="cls-11" x="46.2" y="49.37">ll</tspan><tspan x="52.34" y="49.37">igence - Con</tspan><tspan class="cls-14" x="123.43" y="49.37">t</tspan><tspan x="127.85" y="49.37">inuous </tspan><tspan x="4.35" y="65.82">Integra</tspan><tspan class="cls-14" x="44.08" y="65.82">t</tspan><tspan x="48.5" y="65.82">ion/Con</tspan><tspan class="cls-11" x="93.12" y="65.82">t</tspan><tspan x="97.54" y="65.82">inuous </tspan><tspan x="34.91" y="82.28">Deployment</tspan></text><rect class="cls-3" x="53" y="302.01" width="194" height="35.81" rx="16.39" ry="16.39"/><text class="cls-15" transform="translate(80.32 326.6)">F<tspan class="cls-16" x="10.69" y="0">ind Out </tspan><tspan x="89.31" y="0">M</tspan><tspan class="cls-17" x="107.14" y="0">o</tspan><tspan class="cls-8" x="120.35" y="0">r</tspan><tspan class="cls-17" x="127.7" y="0">e</tspan></text></svg>