<svg id="Layer_2" data-name="Layer 2" xmlns="http://www.w3.org/2000/svg" viewBox="0 0 300 400"><defs><style>.cls-1{fill:#eceded;}.cls-2,.cls-9{fill:#434a54;}.cls-3,.cls-4{fill:#da4d28;}.cls-14,.cls-4{font-size:21px;font-family:MuseoSansRounded-500, Museo Sans Rounded;}.cls-5{letter-spacing:-0.01em;}.cls-6{letter-spacing:0em;}.cls-7{letter-spacing:0em;}.cls-8{letter-spacing:0em;}.cls-9{font-size:12px;font-family:Avenir-Roman, Avenir;letter-spacing:0.01em;}.cls-10{letter-spacing:0em;}.cls-11{letter-spacing:0.02em;}.cls-12{letter-spacing:0.02em;}.cls-13{letter-spacing:0.02em;}.cls-14{fill:#fff;letter-spacing:0em;}.cls-15{letter-spacing:0.01em;}.cls-16{letter-spacing:0.01em;}</style></defs><title>Cloud Computing Section</title><ellipse class="cls-1" cx="150" cy="86.8" rx="49.63" ry="50"/><ellipse class="cls-2" cx="137.73" cy="54.07" rx="6.08" ry="7.57"/><path class="cls-2" d="M158.75,78.23c.14-2.54.35-6.42.3-5.65h0l-.18-.13-.73-.54-1.46-1.09-2.91-2.18-5.83-4.34a3.91,3.91,0,0,0-2-.76l-.12,0c-1-.12-2-.2-3-.28l0,.09,2.61,2.22-3.12,1.57,1.44,2.49-4,8.84-.64-12.16.57-.5L139,63H136.5l-.76,2.74.57.49-.64,12.17-4-8.84,1.44-2.49L130,65.52l2.61-2.22,0-.09c-1,.08-2,.16-3,.28a1.26,1.26,0,0,0-.28.08,4.05,4.05,0,0,0-2.64,1.3L116.55,75.95l0,0h0c-1,8.83-.27,2.45-.49,4.42h0v0l.05.11.1.21.21.42.42.84.85,1.68,1.7,3.36,3.39,6.73c1.55-.77,3.08-1.6,4.59-2.44,0,1.44-.07,2.86-.09,4.29,0,.06,0,.12,0,.18h.8l.91,29.26h8.28c.11-3.62.14-8.41.14-13.16a24.85,24.85,0,0,1,21.34-33.73Zm-11-3.13c0-.68-.05-1.36-.08-2l1.62,1.35.78.65-7.28,4.3-.69-1Zm-20.24,9.77-1-1.68-1.88-3.27-.55-1,3.71-4.51Q127.61,79.65,127.48,84.87Z"/><path class="cls-2" d="M138.72,114.83l.32,10.29h8.28c0-.34,0-.71,0-1.08A24.8,24.8,0,0,1,138.72,114.83Z"/><polygon class="cls-3" points="164.69 79.79 163.47 79.79 160.37 79.79 159.14 79.79 158.24 85.73 160.37 85.73 163.47 85.73 165.6 85.73 164.69 79.79"/><polygon class="cls-3" points="152.95 80.99 151.89 81.61 149.2 83.17 148.14 83.78 150.3 89.38 152.15 88.3 154.83 86.74 156.68 85.67 152.95 80.99"/><polygon class="cls-3" points="143.37 87.93 142.75 89 141.21 91.71 140.6 92.78 145.24 96.54 146.31 94.67 147.85 91.97 148.92 90.11 143.37 87.93"/><polygon class="cls-3" points="138.52 98.78 138.52 100.01 138.52 103.14 138.52 104.37 144.41 105.28 144.41 103.14 144.41 100.01 144.41 97.86 138.52 98.78"/><polygon class="cls-3" points="139.7 110.61 140.31 111.69 141.86 114.39 142.47 115.45 148.03 113.28 146.96 111.42 145.41 108.72 144.35 106.85 139.7 110.61"/><polygon class="cls-3" points="146.6 120.27 147.66 120.89 150.34 122.44 151.4 123.06 155.14 118.38 153.29 117.3 150.61 115.75 148.76 114.67 146.6 120.27"/><polygon class="cls-3" points="157.36 125.15 158.59 125.15 161.69 125.15 162.91 125.15 163.82 119.22 161.69 119.22 158.59 119.22 156.45 119.22 157.36 125.15"/><polygon class="cls-3" points="169.11 123.96 170.17 123.34 172.85 121.78 173.91 121.17 171.75 115.57 169.91 116.64 167.22 118.2 165.38 119.28 169.11 123.96"/><polygon class="cls-3" points="178.69 117.01 179.31 115.94 180.85 113.24 181.46 112.17 176.81 108.41 175.75 110.27 174.2 112.97 173.13 114.84 178.69 117.01"/><polygon class="cls-3" points="183.54 106.16 183.53 104.93 183.54 101.81 183.53 100.58 177.64 99.66 177.65 101.81 177.65 104.93 177.65 107.08 183.54 106.16"/><polygon class="cls-3" points="182.36 94.33 181.74 93.26 180.19 90.56 179.58 89.49 174.02 91.67 175.09 93.53 176.64 96.23 177.71 98.09 182.36 94.33"/><polygon class="cls-3" points="175.46 84.68 174.4 84.06 171.72 82.5 170.65 81.89 166.92 86.57 168.77 87.64 171.45 89.2 173.3 90.27 175.46 84.68"/><path class="cls-3" d="M161,121.42a18.95,18.95,0,1,1,18.62-18.94A18.8,18.8,0,0,1,161,121.42Zm0-32.23a13.29,13.29,0,1,0,13,13.28,13.16,13.16,0,0,0-13-13.28Z"/><ellipse class="cls-2" cx="161.03" cy="102.47" rx="7.9" ry="7.96"/><text class="cls-4" transform="translate(33.73 164.68)"><tspan class="cls-5">M</tspan><tspan x="17.62" y="0">ig</tspan><tspan class="cls-6" x="34.88" y="0">r</tspan><tspan class="cls-5" x="42.25" y="0">a</tspan><tspan x="52.98" y="0">tion &amp; Dep</tspan><tspan class="cls-7" x="153.76" y="0">l</tspan><tspan class="cls-8" x="159.2" y="0">o</tspan><tspan x="172.11" y="0">yme</tspan><tspan class="cls-6" x="213.04" y="0">n</tspan><tspan x="225.35" y="0">t</tspan></text><text class="cls-9" transform="translate(62.55 187.96)">On-p<tspan class="cls-10" x="28.73" y="0">r</tspan><tspan x="32.92" y="0">emise to Cloud Migra</tspan><tspan class="cls-11" x="153.44" y="0">t</tspan><tspan class="cls-12" x="157.86" y="0">ion </tspan><tspan x="11.18" y="18.64">Planning Strategy Design &amp; </tspan><tspan x="1.55" y="37.29">Implementa</tspan><tspan class="cls-13" x="67.59" y="37.29">t</tspan><tspan x="72.01" y="37.29">ion - Cloud Na</tspan><tspan class="cls-11" x="153.24" y="37.29">t</tspan><tspan class="cls-12" x="157.65" y="37.29">ive </tspan><tspan x="4.18" y="55.93">App</tspan><tspan class="cls-11" x="27.83" y="55.93">l</tspan><tspan class="cls-12" x="30.9" y="55.93">ica</tspan><tspan class="cls-13" x="46.33" y="55.93">t</tspan><tspan x="50.75" y="55.93">ion Development and </tspan><tspan x="30.89" y="74.57">Pla</tspan><tspan class="cls-11" x="47.66" y="74.57">t</tspan><tspan class="cls-12" x="52.07" y="74.57">form Conversion</tspan></text><rect class="cls-3" x="53" y="302.01" width="194" height="35.81" rx="16.39" ry="16.39"/><text class="cls-14" transform="translate(80.32 326.6)">F<tspan class="cls-15" x="10.69" y="0">ind Out </tspan><tspan x="89.31" y="0">M</tspan><tspan class="cls-16" x="107.14" y="0">o</tspan><tspan class="cls-5" x="120.35" y="0">r</tspan><tspan class="cls-16" x="127.7" y="0">e</tspan></text></svg>