<svg id="Layer_2" data-name="Layer 2" xmlns="http://www.w3.org/2000/svg" viewBox="0 0 300 400"><defs><style>.cls-1{fill:#eceded;}.cls-2,.cls-4{fill:#da4d28;}.cls-3,.cls-7{fill:#434a54;}.cls-17,.cls-4{font-size:21px;font-family:MuseoSansRounded-500, Museo Sans Rounded;}.cls-4{letter-spacing:0em;}.cls-5{letter-spacing:0em;}.cls-6{letter-spacing:0em;}.cls-7{font-size:12px;font-family:Avenir-Roman, Avenir;letter-spacing:0.02em;}.cls-8{letter-spacing:0.02em;}.cls-9{letter-spacing:0.02em;}.cls-10{letter-spacing:0.01em;}.cls-11{letter-spacing:0em;}.cls-12{letter-spacing:-0.01em;}.cls-13{letter-spacing:0em;}.cls-14{letter-spacing:0em;}.cls-15{letter-spacing:0.02em;}.cls-16{letter-spacing:0.02em;}.cls-17{fill:#fff;letter-spacing:0em;}.cls-18{letter-spacing:0.01em;}.cls-19{letter-spacing:0.01em;}.cls-20{letter-spacing:-0.01em;}</style></defs><title>Cloud Computing Section</title><circle class="cls-1" cx="150" cy="86.8" r="50"/><path class="cls-2" d="M171.41,80H128.59V103h42.82ZM159.72,95.91l-3.24,3.24-4.08-4.08-2.26,4.13-3.4-13,13,3.4-4.13,2.26Z"/><path class="cls-3" d="M183.14,105.64l-3,0h-1V89a11.94,11.94,0,0,0,1.09-1,14.4,14.4,0,0,0-14.09-24.38A18.38,18.38,0,1,0,129.82,69h-3.42a11.34,11.34,0,0,0-3.13,22.25v14.32h-4.07l-.4,3a4.88,4.88,0,0,0-.06.74v.88a6.13,6.13,0,0,0,6.12,6.13h52.67a6.13,6.13,0,0,0,6.13-6.13v-.88a5.14,5.14,0,0,0-.06-.78ZM126.76,78.28A1.22,1.22,0,0,1,128,77.06h46.44a1.22,1.22,0,0,1,1.22,1.22v27.33H157l-.07.73H145.55l-.06-.73H126.76Zm53.4,32a2.63,2.63,0,0,1-2.63,2.63H124.86a2.64,2.64,0,0,1-2.63-2.63v-.88a2,2,0,0,1,0-.29h20a.79.79,0,0,0,.79.73h16.23a.8.8,0,0,0,.8-.73h20a2.45,2.45,0,0,1,0,.29Z"/><text class="cls-4" transform="translate(40.49 164.68)">C<tspan class="cls-5" x="14.76" y="0">l</tspan><tspan class="cls-6" x="20.2" y="0">oud Solution Design </tspan></text><text class="cls-7" transform="translate(68.38 187.96)">Cost Reduc<tspan class="cls-8" x="63.84" y="0">t</tspan><tspan x="68.25" y="0">ion </tspan><tspan class="cls-9" x="88.99" y="0">t</tspan><tspan class="cls-10" x="93.41" y="0">h</tspan><tspan class="cls-11" x="100.26" y="0">r</tspan><tspan class="cls-10" x="104.45" y="0">ough </tspan><tspan class="cls-12" x="136.48" y="0">A</tspan><tspan class="cls-10" x="144.83" y="0">WS </tspan><tspan x="-1.94" y="18">Cloud A</tspan><tspan class="cls-13" x="43.56" y="18">r</tspan><tspan x="47.75" y="18">chitectu</tspan><tspan class="cls-14" x="92.1" y="18">r</tspan><tspan class="cls-15" x="96.29" y="18">e Solu</tspan><tspan class="cls-16" x="130.73" y="18">t</tspan><tspan class="cls-10" x="135.15" y="18">ions - </tspan><tspan x="-11.13" y="36">Cloud Rea</tspan><tspan class="cls-9" x="46.52" y="36">d</tspan><tspan x="54.04" y="36">iness Assessments for </tspan><tspan x="-1.69" y="54">App</tspan><tspan class="cls-8" x="21.97" y="54">l</tspan><tspan class="cls-10" x="25.04" y="54">ica</tspan><tspan class="cls-16" x="40.47" y="54">t</tspan><tspan x="44.89" y="54">ions &amp; Infrastructu</tspan><tspan class="cls-14" x="146.37" y="54">r</tspan><tspan class="cls-10" x="150.55" y="54">e - </tspan><tspan x="18.56" y="72">Security &amp; Comp</tspan><tspan class="cls-9" x="112.64" y="72">l</tspan><tspan class="cls-10" x="115.71" y="72">iance</tspan></text><rect class="cls-2" x="53" y="302.01" width="194" height="35.81" rx="16.39" ry="16.39"/><text class="cls-17" transform="translate(80.32 326.6)">F<tspan class="cls-18" x="10.69" y="0">ind Out </tspan><tspan x="89.31" y="0">M</tspan><tspan class="cls-19" x="107.14" y="0">o</tspan><tspan class="cls-20" x="120.35" y="0">r</tspan><tspan class="cls-19" x="127.7" y="0">e</tspan></text></svg>